<?xml version="1.0" encoding="UTF-8"?>
<svg width="100%" viewBox="0 0 77 101" version="1.1" xmlns="http://www.w3.org/2000/svg" xmlns:xlink="http://www.w3.org/1999/xlink">
    <!-- Generator: Sketch 46.2 (44496) - http://www.bohemiancoding.com/sketch -->
    <title>nudj-logo-dark</title>
    <desc>Created with Sketch.</desc>
    <defs>
        <polygon id="path-1" points="26.4552203 0.242447504 26.4552203 77.7233654 0.574028398 77.7233654 0.574028398 0.242447504 26.4552203 0.242447504"></polygon>
    </defs>
    <g id="Screens" stroke="none" stroke-width="1" fill="none" fill-rule="evenodd">
        <g id="404" transform="translate(-130.000000, -38.000000)">
            <g id="nudj-logo-dark" transform="translate(130.000000, 38.000000)">
                <path d="M31.7819593,78.3144697 C33.5693492,78.1430355 34.2938237,77.2805487 35.4664678,76.5629171 C35.7493831,77.2858645 36.7713153,78.4101539 37.5922983,78.4101539 C38.6605017,78.4101539 40.0089763,77.3815487 40.0089763,76.1602461 C40.0089763,73.1927066 39.5224678,73.1927066 39.5224678,70.2238382 C39.5224678,58.2101539 39.0029085,58.7337592 39.5489085,46.1951408 C39.9164339,37.7775882 39.6176542,37.7696145 39.6176542,29.3440882 C39.6176542,28.2689697 38.944739,27.6191145 37.5922983,27.3333908 C36.5452475,27.1114566 35.514061,28.2689697 35.514061,29.3440882 C35.514061,37.7696145 35.5352136,37.6779171 35.5352136,46.1034434 C35.5352136,58.1184566 35.1809085,58.2101539 35.1809085,70.2238382 C35.1809085,72.3700882 33.9170441,73.6060092 31.7819593,73.6060092 C29.6468746,73.6060092 28.6804678,72.3687592 28.6024678,70.2238382 C28.2732814,61.1152329 27.7471119,55.3064039 27.6889424,50.6417987 C27.6175525,44.7186803 28.104061,41.0002855 28.5588407,30.7687197 C28.6077559,29.6936013 28.0696881,27.1526539 25.9716203,27.1526539 C24.9034169,27.1526539 24.1591119,28.2689697 24.1591119,29.3440882 C24.1591119,49.7846276 24.2371119,49.7846276 24.2371119,70.2238382 C24.2371119,74.5176671 27.5302983,78.7237855 31.7819593,78.3144697" id="Fill-1" fill="#081F2C"></path>
                <path d="M52.2024915,28.1766079 C52.3399831,26.0343447 53.1199831,24.7824763 55.2563898,24.7824763 C57.3914746,24.7824763 59.1325932,26.3439895 59.1325932,28.4902395 C59.1325932,33.9482263 58.8959492,33.6399105 59.1577119,39.0899237 C59.7790678,52.1175947 58.578661,51.0252 58.9633729,62.9432 C59.0321186,65.08945 57.3914746,66.2443053 55.2563898,66.2443053 C53.1199831,66.2443053 52.1575424,64.6522263 52.1575424,62.5059763 C52.1575424,44.9864632 51.245339,43.1525158 52.2024915,28.1766079 M54.7593051,70.8530947 C56.4898475,71.0232 58.1344576,71.0245289 59.3137119,70.2962658 C59.6151356,70.9766868 60.2761525,72.2750684 61.0654068,72.2750684 C62.1362542,72.2750684 63.1000169,71.2358316 63.1000169,70.1607132 C63.1000169,67.2410158 63.7240169,64.8236605 63.7240169,61.9039632 C63.7240169,49.8411079 63.6275085,51.1527789 63.6275085,39.0899237 C63.6275085,33.6332658 63.9831356,33.2797658 63.9831356,27.8231079 C63.9831356,15.1688711 63.5362881,14.53895 63.5362881,1.88604211 C63.5362881,0.810923684 62.1362542,0.000265789474 61.0654068,0.000265789474 C59.9972034,0.000265789474 59.4313729,0.810923684 59.4313729,1.88604211 C59.4313729,11.1727263 60.2325254,12.2093053 59.6428983,21.4760553 C58.5019831,20.8115816 56.668322,19.9544105 55.2563898,19.9544105 C50.9848983,19.9544105 47.7723559,23.8854368 47.6348644,28.1766079 C47.1073729,44.5731605 47.8992712,45.6961211 47.8992712,63.2156342 C47.8992712,67.5094632 50.5076441,70.4344763 54.7593051,70.8530947" id="Fill-3" fill="#081F2C"></path>
                <path d="M51.0573458,94.5375947 C50.8577186,94.3635026 50.6832102,94.2133316 50.4201254,93.8173053 C50.2892441,93.62195 50.0261593,93.5687921 49.8318203,93.7003579 C49.6388034,93.8305947 49.5872441,94.0950553 49.7154814,94.2904105 C50.0433458,94.7821211 50.287922,94.9934237 50.5034136,95.1808053 C50.7043627,95.3562263 50.8775492,95.5063974 51.1406339,95.9024237 C51.223922,96.0246868 51.3574475,96.0911342 51.4936169,96.0911342 C51.5755831,96.0911342 51.6562271,96.0672132 51.728939,96.0193711 C51.923278,95.8891342 51.9748373,95.6233447 51.845278,95.4293184 C51.5174136,94.9376079 51.2728373,94.7249763 51.0573458,94.5375947" id="Fill-5" fill="#081F2C"></path>
                <path d="M47.2486983,95.4590868 C47.2579525,95.2198763 47.0715458,95.0178763 46.8335797,95.0085737 C46.614122,94.9899684 46.3946644,95.1853237 46.3867322,95.4258632 C46.3378169,96.7056395 46.5400881,97.3634684 46.7357492,98.0000342 C46.9181898,98.5927447 47.0913763,99.1522316 47.0477492,100.284495 C47.0384949,100.525034 47.2235797,100.725705 47.4615458,100.735008 L47.4787322,100.735008 C47.7100881,100.735008 47.900461,100.551613 47.9097153,100.317718 C47.9586305,99.0366132 47.7563593,98.3787842 47.5593763,97.7435474 C47.3782576,97.1508368 47.2050712,96.59135 47.2486983,95.4590868" id="Fill-7" fill="#081F2C"></path>
                <path d="M44.195461,80.3182566 C44.3303085,80.9601382 44.4678,81.6232829 45.0071898,82.807375 C45.0825458,82.9721645 45.2451559,83.0691776 45.4143763,83.0691776 C45.4765119,83.0691776 45.5399695,83.0572171 45.599461,83.0293092 C45.8242068,82.9256513 45.9246814,82.6585329 45.8202407,82.4326118 C45.324478,81.3402171 45.2015288,80.7528224 45.0706475,80.1322039 C44.937122,79.4916513 44.7969864,78.8285066 44.2589186,77.6444145 C44.157122,77.4184934 43.8913932,77.3188224 43.6666475,77.4224803 C43.4419017,77.5261382 43.3414271,77.7932566 43.4458678,78.0191776 C43.9429525,79.1115724 44.0645797,79.6976382 44.195461,80.3182566" id="Fill-9" fill="#081F2C"></path>
                <path d="M43.6027932,95.0762171 C43.1956068,95.5931776 43.047539,95.9200987 42.9153356,96.2098092 C42.7950305,96.4769276 42.6800136,96.7294276 42.3376068,97.1653224 C42.189539,97.3540329 42.2212678,97.6277961 42.4089966,97.7779671 C42.4883186,97.8404276 42.5835051,97.8723224 42.6773695,97.8723224 C42.8042847,97.8723224 42.932522,97.8151776 43.0184542,97.7062039 C43.4243186,97.1879145 43.5737085,96.8609934 43.7045898,96.5712829 C43.8262169,96.3041645 43.9425559,96.0516645 44.2836407,95.6157697 C44.4317085,95.4270592 44.3999797,95.1532961 44.2122508,95.003125 C44.0232,94.8542829 43.750861,94.8875066 43.6027932,95.0762171" id="Fill-11" fill="#081F2C"></path>
                <path d="M48.3667424,77.5131145 C48.0864712,78.1124697 48.0164034,78.4672987 47.9542678,78.7796013 C47.8974203,79.0693118 47.8432169,79.343075 47.6065729,79.8467461 C47.5047763,80.0660224 47.5973186,80.3264961 47.8154542,80.428825 C47.8749458,80.4580618 47.9384034,80.4713513 48.000539,80.4713513 C48.1644712,80.4713513 48.3204712,80.378325 48.3945051,80.2201803 C48.6747763,79.6194961 48.7448441,79.2646671 48.8083017,78.9523645 C48.8651492,78.6626539 48.9206746,78.3888908 49.1559966,77.8852197 C49.2577932,77.6672724 49.1652508,77.4054697 48.9457932,77.3031408 C48.7289797,77.2008118 48.469861,77.2938382 48.3667424,77.5131145" id="Fill-13" fill="#081F2C"></path>
                <path d="M44.0792542,86.3167263 C43.8571525,85.6097263 43.602,85.2402789 43.0361695,85.2309763 C42.508678,85.2216737 42.1662712,85.1844632 41.6004407,85.5379632 C39.7495932,86.7592658 38.4751525,87.3280553 37.4241356,87.7280684 C35.5997288,88.3978579 34.2644746,89.2550289 33.2227119,89.8610289 C30.6804407,91.3401474 28.2174915,93.0425289 22.8407797,93.6285947 C20.1702712,93.9196342 19.0267119,93.1103053 17.2459322,91.5767 C16.2993559,90.7607263 15.5973559,89.5846079 15.3712881,87.0396737 C14.8305763,80.9690421 15.8498644,65.8217 15.8498644,43.9140026 C15.8498644,39.6573842 12.4958644,36.6712395 8.36054237,36.4758842 C6.83227119,36.4014632 5.39522034,36.2605947 4.11945763,37.0127789 C4.00576271,35.9921474 3.07372881,34.8426079 2.00552542,34.8346342 C1.04837288,34.8279895 0.468,35.5070816 0.523525424,36.4386737 C0.748271186,40.2620553 0.231355932,40.4693711 0.231355932,43.9007132 C0.231355932,47.8437 0,47.6908711 0,51.6325289 C0,68.2895553 0.850067797,68.1287526 0.832881356,85.1087132 C0.831559322,85.8595684 1.40135593,86.5306868 2.14830508,86.5506211 C3.23633898,86.5811868 5.07925424,86.1266868 5.06338983,84.5665026 C4.90077966,67.7951868 4.50152542,68.0543316 4.28867797,51.5581079 C4.25298305,48.7314368 3.2799661,42.5823974 4.73155932,41.0062658 C5.45735593,40.2182 7.14294915,40.29395 8.21776271,40.2075684 C10.6370847,40.0135421 11.5863051,42.3259105 11.6722373,44.4641868 C12.7325085,70.6803316 10.6251864,67.3978316 10.7203729,86.1173842 C10.7349153,89.0065158 11.9419322,93.5355684 14.2422712,95.2685158 C15.8168136,96.4552658 18.6829831,97.0705684 20.7678305,96.9762132 C21.6178983,96.9363447 22.3820339,96.9762132 23.4661017,96.7835158 C30.4318983,95.5436079 31.1061356,93.3641342 34.9400339,92.2916737 C34.9506102,92.2890158 36.2805763,92.0325289 36.9905085,92.2717395 C37.1769153,92.3514763 37.3778644,92.4431737 37.6078983,92.5680947 C38.9167119,93.2711079 39.6689492,92.9415289 40.6313898,92.7448447 C41.5925085,92.5468316 41.5819322,92.6079632 42.4293559,92.7156079 C43.9986102,92.9176079 44.2603729,92.9508316 44.9253559,92.5734105 C45.1805085,92.4285553 45.4092203,91.9062789 45.1487797,91.4850026 C45.0985424,91.4092526 45.0099661,91.3707132 44.9200678,91.3840026 C43.9285424,91.5394895 43.2767797,91.5355026 42.8590169,91.5075947 C42.3963051,91.4757 41.6374576,91.5607526 41.1628475,91.0158842 C41.1205424,90.9667132 41.0491525,90.9574105 40.9936271,90.9919632 C40.6816271,91.1899763 40.4780339,91.2152263 39.9928475,91.3321737 C39.388678,91.4783579 38.4196271,91.2643974 38.4103729,91.1075816 C38.3826102,90.6703579 39.0277627,91.2471211 39.9386441,91.0185421 C40.5428136,90.8670421 40.9909831,90.3779895 41.2738983,90.0018974 C41.7392542,89.3839368 41.8040339,89.1500421 41.7868475,88.6782658 C41.768339,88.2171211 42.002339,87.6071342 42.2350169,87.6948447 C42.4690169,87.7838842 42.1345424,88.3327395 42.3606102,88.4270947 C42.5946102,88.5254368 42.7321017,87.9619632 42.9555254,88.0496737 C43.2582712,88.16795 43.1115254,88.2171211 43.1419322,88.5001868 C43.1604407,88.6623184 43.2966102,88.9041868 43.5729153,89.0995421 C43.7394915,89.2178184 44.030339,89.3055289 44.1678305,89.3852658 C44.4335593,89.5380947 44.4084407,89.8450816 44.1598983,89.8543842 C43.8941695,89.8636868 43.2622373,89.1500421 43.1154915,89.27895 C42.9224746,89.4463974 43.3812203,89.7626868 43.1088814,89.8371079 C42.7664746,89.9327921 42.7955593,89.4623447 42.2733559,89.5753053 C42.1133898,89.6085289 41.9137627,89.7640158 41.7630508,89.9553842 C41.5660678,90.2092132 41.4523729,90.5268316 41.6255593,90.7235158 C41.9283051,91.0677132 42.315661,90.9507658 42.8947119,90.9986079 C43.4129492,91.0424632 44.2735932,91.2045947 45.1924068,90.9082395 C45.8349153,90.6690289 46.5541017,90.3912789 46.0451186,89.3865947 C45.122339,87.5566342 44.4044746,87.3559632 44.0792542,86.3167263" id="Fill-15" fill="#081F2C"></path>
                <path d="M73.4506169,9.40655526 C74.6642441,9.40655526 75.3596339,9.03046316 75.7377356,7.87029211 C76.0841085,6.80979211 75.9175322,5.94198947 75.7165831,5.31339737 C75.3450915,4.15189737 74.662922,3.81301579 73.4492949,3.81301579 C72.2356678,3.81301579 71.1701085,4.94527895 71.1701085,6.16525263 C71.1701085,6.60779211 71.2917356,7.06893684 71.3023119,7.34934474 C71.3499051,8.56798947 72.2369898,9.40655526 73.4506169,9.40655526" id="Fill-17" fill="#081F2C"></path>
                <path d="M51.6151119,87.1162211 C51.7142644,86.7574053 51.3321966,86.6351421 51.073078,86.1421026 C51.0294508,86.05705 50.6606034,86.2178526 50.568061,86.2404447 C50.1502983,86.3494184 49.6479254,86.3759974 49.0054169,86.5966026 C48.6682983,86.7401289 48.0244678,86.9859842 48.3814169,87.8325237 C48.5083322,88.1381816 48.7753831,88.2072868 49.1376203,88.1793789 C49.6399932,88.1395105 51.5278576,87.4351684 51.6151119,87.1162211" id="Fill-19" fill="#081F2C"></path>
                <path d="M50.7564508,85.4543724 C50.8331288,85.3055303 50.412722,84.6596618 50.2924169,83.9407013 C50.2831627,83.8782408 50.2210271,83.8410303 50.1575695,83.8543197 C47.0322814,84.5267671 47.6681797,85.2709776 47.7898068,85.9620303 C47.8413661,86.2597145 48.1401458,86.2517408 48.226078,86.2557276 C49.006078,86.2411092 50.6506881,85.6630171 50.7564508,85.4543724" id="Fill-21" fill="#081F2C"></path>
                <path d="M50.0734881,89.8434868 C51.1059966,89.6507895 53.0533525,89.1630658 53.1313525,88.7045789 C53.1855559,88.3763289 53.0031153,87.8965789 52.5364373,87.7623553 C51.8661661,87.5709868 49.3886746,88.5238421 49.2181322,88.7484342 C49.0449458,88.9730263 49.0370136,89.0408026 49.1507085,89.3052632 C49.2723356,89.5896579 49.6372169,89.8182368 49.7667763,89.8527895 C49.8275898,89.8687368 49.9796237,89.8607632 50.0734881,89.8434868" id="Fill-23" fill="#081F2C"></path>
                <path d="M52.5690915,89.6487961 C51.9596339,89.8959803 49.8523119,89.8694013 50.0572271,90.7983355 C50.1405153,91.1810724 50.7790576,91.5345724 52.3879729,90.8980066 C52.6246169,90.8049803 52.8784475,90.6960066 53.1587186,90.6149408 C53.2975322,90.5750724 53.3940407,90.4687566 53.4323797,90.3292171 C53.4971593,90.0993092 53.4389898,89.9052829 53.3252949,89.751125 C53.1005492,89.4454671 53.0688203,89.448125 52.5690915,89.6487961" id="Fill-25" fill="#081F2C"></path>
                <g id="Group-29" transform="translate(50.237288, 12.695933)">
                    <mask id="mask-2" fill="white">
                        <use xlink:href="#path-1"></use>
                    </mask>
                    <g id="Clip-28"></g>
                    <path d="M26.3995627,32.0340434 C26.3995627,24.6836355 26.1470542,24.6836355 26.1470542,17.3332276 C26.1470542,9.98281974 25.0114271,9.98149079 25.1489186,2.63241184 C25.1793254,1.00312237 24.8091559,-0.316522368 22.7838,0.482175 C21.5291898,0.976543421 20.4861051,2.23505658 20.4120712,3.58659605 C20.0670203,9.75822763 21.3718678,10.7217145 21.459122,17.7385566 C21.5410881,24.5401092 21.8068169,25.2763461 21.8068169,32.625425 C21.8068169,39.9758329 21.574139,39.3804645 21.574139,46.7322013 C21.574139,54.0772934 21.5926475,53.9855961 21.5926475,61.3227145 C21.5926475,63.6815961 19.9295288,65.9527671 17.9940712,66.9508066 C16.7328508,67.6006618 15.3962746,68.1588197 13.6525119,68.8551882 C8.83369831,70.6705303 7.18908814,70.5974382 6.68010508,70.4632145 C6.61400339,70.4366355 6.54657966,70.4100566 6.4818,70.3794908 C6.47651186,70.3768329 6.4738678,70.374175 6.4738678,70.374175 L6.4738678,70.3768329 C6.02966441,70.1748329 5.58413898,69.8651882 5.14125763,69.4120171 C4.18939322,68.4378987 1.58366441,69.3375961 0.89620678,70.0485829 C0.178342373,70.7941224 0.826138983,71.9516355 1.23729153,72.6905303 C2.03315593,74.1257934 1.57308814,74.5882671 2.17857966,74.4473987 C2.63071525,74.3424118 3.09474915,73.9171487 2.85149492,72.9616355 C2.51041017,71.6207276 1.93400339,71.4054382 2.08868136,71.1795171 C2.34912203,70.8020961 2.59237627,71.4958066 2.98502034,72.1961618 C3.01674915,72.2519776 3.04847797,72.3994908 3.14630847,72.3370303 C3.27190169,72.2559645 3.89325763,71.2100829 3.98315593,70.8552539 C4.08495254,70.4485961 4.24227458,70.6399645 4.15634237,70.8725303 C4.08627458,71.0625697 3.68702034,72.1403461 3.55746102,72.4287276 C3.4477322,72.6705961 3.62620678,72.7636224 3.70420678,72.7583066 C3.9157322,72.7330566 4.38769831,72.5642803 4.53841017,72.4526487 C4.78034237,72.2758987 4.83718983,72.4273987 4.70366441,72.570925 C4.64285085,72.6360434 4.29515593,73.0546618 3.62488475,73.2314118 C3.34725763,73.3045039 3.27322373,73.681925 3.29834237,73.9796092 C3.34064746,74.4673329 3.56010508,74.7583724 4.25946102,75.1583855 C5.47969831,75.8560829 6.23457966,75.4866355 6.24515593,75.7657145 C6.25308814,75.9650566 5.63305424,76.0182145 4.74332542,75.8454513 C3.71874915,75.6461092 3.48871525,74.9430961 3.29041017,75.1663592 C3.04318983,75.4441092 3.50854576,75.4839776 3.51647797,75.8773461 C3.52441017,76.1670566 3.31552881,76.1351618 3.4398,76.4966355 C3.56539322,76.8620961 3.66322373,76.8049513 3.70288475,76.9750566 C3.75312203,77.1890171 3.73725763,77.3059645 3.70420678,77.5584645 C3.69098644,77.6621224 3.78617288,77.7458461 3.88664746,77.7179382 C5.34617288,77.3245697 6.88105424,76.9737276 7.50902034,75.9756882 C8.2017661,74.8700039 8.38685085,74.0048592 10.617122,73.1596487 C10.6792576,73.1397145 10.7427153,73.1171224 10.8061729,73.101175 C12.8857322,72.5536487 14.0649864,71.7802013 18.9075966,69.9010697 C22.5643424,68.480425 25.6393932,64.9573855 25.6565797,61.0183855 C25.6856644,54.0799513 26.4564102,53.9417408 26.4564102,46.7335303 C26.4564102,39.3831224 26.3995627,39.3831224 26.3995627,32.0340434" id="Fill-27" fill="#081F2C" mask="url(#mask-2)"></path>
                </g>
            </g>
        </g>
    </g>
</svg>
