<svg width="689px" height="150px" viewBox="0 0 689 150" version="1.1" xmlns="http://www.w3.org/2000/svg" xmlns:xlink="http://www.w3.org/1999/xlink">
    <!-- Generator: Sketch 46.2 (44496) - http://www.bohemiancoding.com/sketch -->
    <desc>Created with Sketch.</desc>
    <defs>
        <polygon id="path-1" points="0.579990487 0.695 2.57681197 0.695 2.57681197 10.1682601 0.579990487 10.1682601 0.579990487 0.695"></polygon>
    </defs>
    <g id="Page-1" stroke="none" stroke-width="1" fill="none" fill-rule="evenodd">
        <g transform="translate(344.500000, 75.500000) rotate(-180.000000) translate(-344.500000, -75.500000) translate(0.000000, 0.000000)">
            <path d="M657.5027,109.9786 C657.5027,124.2366 651.9607,135.7946 645.1227,135.7946 C638.2857,135.7946 632.7427,124.2366 632.7427,109.9786 C632.7427,95.7206 638.2857,84.1636 645.1227,84.1636 C651.9607,84.1636 657.5027,95.7206 657.5027,109.9786" id="Fill-1" fill="#EFEBD3"></path>
            <path d="M645.96,96.4834 C645.39,96.3844 645.036,95.7904 645.025,95.2364 C643.807,94.4384 642.925,93.3314 643.138,91.6144 C643.223,90.9374 643.669,90.3034 644.428,90.3254 C646.351,90.3774 649.404,91.3734 649.593,93.6144 C649.629,94.0494 649.476,94.3654 649.232,94.5714 C649.836,95.3454 649.536,96.6554 648.303,96.6544 C647.514,96.6534 646.74,96.6174 645.96,96.4834 Z M643.715,127.6654 C642.834,127.1024 642.35,126.0594 642.578,125.0264 C642.826,123.8994 643.792,123.1174 644.777,122.6264 C645.403,122.3134 646.17,122.4544 646.541,123.0894 C646.628,123.2364 646.678,123.4034 646.698,123.5774 C647.336,123.5894 648.041,124.1774 647.968,124.8644 C647.844,126.0174 647.461,127.1834 646.381,127.7774 C645.554,128.2324 644.505,128.1704 643.715,127.6654 Z M645.547,114.0034 C645.544,114.0304 645.55,114.0554 645.547,114.0824 C645.299,115.8374 644.486,120.1534 641.74,118.6244 C638.654,116.9064 641.708,112.7664 644.085,112.1214 C645.304,111.7904 645.987,113.1414 645.547,114.0034 Z M645.215,106.5264 C644.663,106.9954 643.936,107.0254 643.391,106.5264 C641.183,104.5084 641.676,101.3874 644.027,99.7514 C644.367,99.5144 644.991,99.4994 645.329,99.7514 C645.669,100.0054 645.934,100.2604 646.215,100.5774 C646.617,101.0314 646.626,101.5624 646.424,101.9954 C646.468,102.1394 646.488,102.3024 646.468,102.4894 C646.318,103.9014 646.4,105.5184 645.215,106.5264 Z M680.134,90.9514 C680.748,89.9534 680.932,88.6664 680.391,87.1654 C677.8,79.9724 669.097,76.4464 662.324,74.2114 C658.399,72.9154 654.293,72.1654 650.173,71.8474 C646.924,71.5974 643.139,72.3094 640,71.2274 C641.068,69.4284 642.154,67.6414 643.266,65.8714 C649.289,61.7094 653.479,55.7594 654.9,48.4984 C655.704,48.0064 656.371,47.2894 656.7,46.3854 C657.121,45.2334 657.4,44.1874 657.612,42.9784 C657.765,42.1004 657.657,41.3144 657.384,40.6334 C657.171,37.6464 656.328,34.6714 652.581,34.5734 C648.594,34.4694 647.271,38.7454 645.026,41.1544 C640.571,45.9364 635.16,49.3944 632.267,54.7334 C632.174,54.8504 632.081,54.9684 631.993,55.0984 C630.846,56.8034 629.572,58.1894 628.195,59.4194 C626.399,60.6074 624.678,61.8964 623.015,63.2804 C622.384,63.6984 621.744,64.1194 621.086,64.5504 C617.24,67.0784 614.728,70.3544 612.937,74.5714 C610.622,80.0184 609.052,85.5974 606.094,90.3184 C605.816,90.6634 605.555,91.0234 605.262,91.3544 C595.743,93.4294 586.212,95.4494 576.659,97.3664 C572.267,98.0434 567.856,98.5884 563.425,98.9674 C539.825,99.1754 516.138,98.5284 492.641,99.5134 C474.318,98.0314 455.909,98.7594 437.766,101.5874 C419.636,101.3124 401.494,101.4844 383.362,101.5914 C366.949,101.6884 350.533,101.7094 334.126,101.2324 C318.683,100.7844 303.261,99.0734 287.824,98.7554 C286.615,98.0374 285.151,97.5894 283.43,97.5314 C216.489,95.3084 149.667,89.7334 83.299,80.7044 C64.156,78.0994 44.921,75.4164 25.583,77.3964 C21.597,77.8044 18.118,79.9534 17.031,83.7964 C16.811,84.1064 16.599,84.4334 16.402,84.7904 C13.993,89.1604 11.328,93.4754 9.274,98.0254 C6.944,103.1864 6.975,108.2184 8.079,113.6964 C8.979,118.1664 9.298,120.8844 8.103,125.3834 C6.83,130.1784 5.215,134.5624 6.082,139.5564 C6.914,144.3494 12.792,147.0414 17.153,145.8424 C18.791,145.3924 20.105,144.5714 21.115,143.5104 C109.311,148.9034 197.737,150.3914 286.063,147.8764 C290.636,147.7454 295.209,147.5924 299.781,147.4404 C314.603,147.5324 329.426,147.5924 344.248,147.6074 C379.411,147.6394 414.575,147.4554 449.736,147.0514 C469.638,146.8234 489.54,146.5224 509.44,146.1574 C511.661,146.1164 513.23,145.0834 514.173,143.6494 C532,141.8304 549.809,139.7914 567.654,138.2174 C578.042,137.0294 586.631,137.1944 595.125,137.5584 C596.659,137.6244 598.21,137.6654 599.76,137.7234 C604.33,138.2304 608.895,139.2204 613.451,140.3514 C614.529,140.7804 615.607,141.2244 616.705,141.6474 C620.201,142.9954 623.796,143.6574 627.436,143.9084 C639.63,146.7664 651.723,148.0924 663.63,141.2684 C664.66,141.1364 665.549,140.8004 666.291,140.3114 C667.434,140.0814 668.539,139.5804 669.321,138.7034 C670.174,137.7444 670.896,136.6694 671.207,135.4024 C671.501,134.2074 671.567,132.6414 671.109,131.4814 C670.936,130.8624 670.667,130.3004 670.323,129.7804 C672.408,128.7244 674.388,127.4214 676.319,125.8894 C679.073,123.7064 678.113,119.7134 676.319,117.4044 C675.585,116.4604 674.701,115.7394 673.737,115.1784 C675.382,114.4144 676.848,113.3554 677.771,111.7864 C678.397,110.7224 678.904,108.8604 678.89,107.6284 C679.383,105.5654 679.254,103.6774 677.949,101.7304 C677.535,101.1124 677.048,100.5874 676.511,100.1594 C676.74,99.8254 676.936,99.4674 677.094,99.0884 C679.078,98.2274 680.581,96.4234 680.432,93.8064 C680.376,92.8304 680.27,91.8854 680.134,90.9514 Z" id="Fill-3" fill="#EFEBD3"></path>
            <path d="M489.1086,99.5548 C520.3646,98.7428 551.7456,101.1998 582.8766,97.2018 C590.1466,96.2698 597.5296,95.0388 604.3956,92.3868 C604.9896,92.1578 604.7316,91.1898 604.1296,91.4228 C590.5496,96.6678 575.0476,97.3468 560.6696,98.0338 C543.8986,98.8368 527.0996,98.6968 510.3166,98.5478 C503.2496,98.4848 496.1746,98.3708 489.1086,98.5548 C488.4666,98.5718 488.4636,99.5728 489.1086,99.5548" id="Fill-5" fill="#1D1E1B"></path>
            <path d="M604.6165,92.2579 C607.6995,89.3999 609.2905,85.5659 611.2175,81.8979 C613.7395,77.0979 616.2625,72.2989 618.7835,67.4989 C619.0825,66.9299 618.2205,66.4239 617.9205,66.9939 C615.5515,71.5029 613.1815,76.0119 610.8125,80.5209 C608.8005,84.3509 607.1315,88.5649 603.9095,91.5509 C603.4365,91.9889 604.1445,92.6949 604.6165,92.2579" id="Fill-7" fill="#1D1E1B"></path>
            <path d="M620.4011,65.6515 C622.0501,63.8145 623.8661,62.2715 625.9211,60.9005 C627.1931,60.0515 628.4121,59.2385 629.4091,58.0565 C631.5641,55.5015 632.5861,52.0205 635.7231,50.4175 C636.2961,50.1245 635.7911,49.2605 635.2181,49.5535 C632.3511,51.0195 631.1601,53.9025 629.3971,56.4195 C627.9841,58.4355 626.0321,59.5325 624.0831,60.9435 C622.4671,62.1125 621.0251,63.4625 619.6941,64.9445 C619.2651,65.4225 619.9701,66.1315 620.4011,65.6515" id="Fill-9" fill="#1D1E1B"></path>
            <path d="M636.8669,48.9942 C638.3939,47.0292 640.5669,45.9972 642.5069,44.5192 C644.1339,43.2812 645.2449,41.7232 646.3129,40.0012 C647.7139,37.7422 649.5119,34.6172 652.5219,34.4702 C657.2439,34.2382 657.1759,39.7402 656.8129,43.0282 C656.7429,43.6672 657.7429,43.6622 657.8129,43.0282 C658.1269,40.1812 658.3749,36.6842 655.9839,34.5792 C654.2229,33.0272 651.8879,33.1752 649.9449,34.3082 C647.2769,35.8662 646.1299,38.7032 644.4089,41.1142 C642.2119,44.1932 638.4539,45.3352 636.1599,48.2872 C635.7699,48.7892 636.4719,49.5022 636.8669,48.9942" id="Fill-11" fill="#1D1E1B"></path>
            <path d="M642.866,72.0352 C641.391,73.0182 639.434,71.7352 640.224,69.7602 C640.582,68.8652 641.646,67.9902 642.28,67.2882 C643.711,65.7042 645.141,64.1192 646.572,62.5352 C647.002,62.0582 646.297,61.3492 645.865,61.8282 C644.166,63.7092 642.459,65.5842 640.768,67.4732 C639.901,68.4392 638.793,69.5902 638.962,71.0092 C639.205,73.0522 641.768,73.9662 643.371,72.8982 C643.904,72.5432 643.404,71.6772 642.866,72.0352" id="Fill-13" fill="#1D1E1B"></path>
            <path d="M648.8533,60.2266 C652.9613,56.2176 655.7233,51.2196 656.9183,45.6056 C657.0523,44.9776 656.0883,44.7086 655.9543,45.3386 C654.7923,50.7966 652.1403,55.6226 648.1463,59.5196 C647.6853,59.9696 648.3923,60.6766 648.8533,60.2266" id="Fill-15" fill="#1D1E1B"></path>
            <path d="M645.9895,73.3614 C650.2495,74.0814 654.5105,74.8004 658.7695,75.5194 C663.0505,76.2424 667.0395,76.8304 670.6665,79.4014 C671.1925,79.7734 671.6925,78.9074 671.1705,78.5374 C667.7485,76.1114 664.0845,75.4084 660.0185,74.7214 C655.4305,73.9464 650.8435,73.1724 646.2555,72.3974 C645.6255,72.2914 645.3555,73.2554 645.9895,73.3614" id="Fill-17" fill="#1D1E1B"></path>
            <path d="M672.3503,80.835 C674.0583,81.692 675.9463,82.416 677.5543,83.445 C679.6783,84.806 679.5313,86.873 679.8263,89.156 C680.0033,90.529 680.7453,92.749 680.4423,94.101 C680.0043,96.057 677.6013,97.093 676.0743,98.105 C675.5393,98.459 676.0393,99.325 676.5783,98.968 C677.8763,98.108 680.2723,97.109 681.0903,95.708 C682.0903,93.995 681.0603,90.973 680.8263,89.156 C680.6043,87.445 680.7333,85.012 679.5663,83.63 C678.1133,81.909 674.8233,80.959 672.8543,79.972 C672.2813,79.684 671.7743,80.546 672.3503,80.835" id="Fill-19" fill="#1D1E1B"></path>
            <path d="M676.2947,100.6495 C679.2527,103.3315 680.0327,107.5925 677.7107,110.9795 C677.0857,111.8915 676.2387,112.6355 675.3017,113.2115 C674.7967,113.5215 674.1267,113.6885 673.7257,114.1435 C673.3047,114.6215 673.2277,114.8675 673.2897,115.5175 C673.3507,116.1525 674.3517,116.1585 674.2897,115.5175 C674.2027,114.6095 677.4197,112.9265 678.0657,112.1545 C679.0337,110.9975 679.7097,109.5825 679.9777,108.0955 C680.5347,105.0085 679.2807,102.0075 677.0017,99.9425 C676.5257,99.5115 675.8167,100.2165 676.2947,100.6495" id="Fill-21" fill="#1D1E1B"></path>
            <path d="M674.2937,115.7227 C677.7327,118.2517 678.2747,122.9097 675.5057,126.1877 C673.0067,129.1447 668.9747,129.6787 665.4067,128.7417 C664.7837,128.5767 664.5187,129.5417 665.1417,129.7047 C669.5857,130.8727 674.6457,129.8017 677.1347,125.6207 C679.3717,121.8647 678.2487,117.3967 674.7977,114.8597 C674.2787,114.4777 673.7797,115.3447 674.2937,115.7227" id="Fill-23" fill="#1D1E1B"></path>
            <path d="M670.7014,129.8419 C670.5774,131.1309 670.7964,132.3049 670.9464,133.5789 C671.2664,136.3009 670.0914,137.6689 667.8884,139.0969 C665.0974,140.9049 661.9624,142.0199 658.7024,142.6049 C658.0704,142.7179 658.3384,143.6819 658.9684,143.5689 C662.8564,142.8709 666.7414,141.3979 669.8704,138.9329 C673.2134,136.2979 671.3524,133.4649 671.7014,129.8419 C671.7634,129.2009 670.7634,129.2049 670.7014,129.8419" id="Fill-25" fill="#1D1E1B"></path>
            <path d="M519.5769,142.3624 C546.0519,140.4314 572.7369,137.7664 599.3059,139.0754 C599.9489,139.1064 599.9479,138.1064 599.3059,138.0754 C572.7369,136.7664 546.0519,139.4314 519.5769,141.3624 C518.9389,141.4094 518.9339,142.4094 519.5769,142.3624" id="Fill-27" fill="#1D1E1B"></path>
            <path d="M602.0691,139.4151 C607.2951,139.6971 612.4541,140.1051 617.3671,142.0441 C621.6141,143.7201 625.3961,144.9351 629.9971,145.1211 C639.7791,145.5181 649.7701,145.6641 659.3871,143.5951 C660.0161,143.4591 659.7501,142.4951 659.1211,142.6311 C649.3561,144.7311 639.0011,144.6311 629.0651,144.0771 C624.0801,143.8001 620.2151,141.8361 615.5851,140.3321 C611.2271,138.9171 606.6111,138.6611 602.0691,138.4151 C601.4261,138.3811 601.4281,139.3811 602.0691,139.4151" id="Fill-29" fill="#1D1E1B"></path>
            <path d="M603.8308,91.6524 C600.1578,97.6614 605.9778,105.3654 610.7298,108.7744 C611.2538,109.1494 611.7538,108.2834 611.2348,107.9104 C606.9038,104.8034 601.3458,97.6354 604.6948,92.1574 C605.0308,91.6064 604.1658,91.1034 603.8308,91.6524" id="Fill-31" fill="#1D1E1B"></path>
            <path d="M600.2942,96.4093 C600.2112,98.9753 600.9472,101.4033 602.4572,103.4843 C602.8312,104.0003 603.6992,103.5013 603.3202,102.9793 C601.9042,101.0283 601.2172,98.8223 601.2942,96.4093 C601.3152,95.7653 600.3152,95.7663 600.2942,96.4093" id="Fill-33" fill="#1D1E1B"></path>
            <path d="M616.5745,121.1622 C622.1965,122.2742 627.7725,121.6272 632.9955,119.2702 C633.5815,119.0062 633.0735,118.1432 632.4905,118.4072 C627.5325,120.6442 622.1755,121.2532 616.8405,120.1982 C616.2115,120.0732 615.9425,121.0372 616.5745,121.1622" id="Fill-35" fill="#1D1E1B"></path>
            <path d="M650.9934,78.086 C650.3394,80.26 650.0514,82.469 650.1254,84.737 C650.1464,85.38 651.1464,85.382 651.1254,84.737 C651.0544,82.558 651.3294,80.44 651.9574,78.352 C652.1434,77.734 651.1784,77.47 650.9934,78.086" id="Fill-37" fill="#1D1E1B"></path>
            <path d="M644.594,88.5206 C649.538,85.5176 655.404,84.3896 660.718,87.1446 C661.289,87.4396 661.795,86.5776 661.223,86.2806 C655.586,83.3586 649.356,84.4586 644.089,87.6576 C643.54,87.9906 644.042,88.8556 644.594,88.5206" id="Fill-39" fill="#1D1E1B"></path>
            <path d="M659.3738,86.0235 C663.5558,83.2525 668.5168,83.0085 673.3768,83.3975 C674.0178,83.4495 674.0148,82.4485 673.3768,82.3975 C668.3388,81.9945 663.1948,82.2935 658.8698,85.1605 C658.3348,85.5145 658.8348,86.3805 659.3738,86.0235" id="Fill-41" fill="#1D1E1B"></path>
            <path d="M659.2444,85.4718 C659.6744,83.1448 660.4964,80.9888 661.7334,78.9698 C662.0704,78.4198 661.2054,77.9168 660.8694,78.4648 C659.5934,80.5488 658.7244,82.8018 658.2804,85.2048 C658.1634,85.8348 659.1274,86.1048 659.2444,85.4718" id="Fill-43" fill="#1D1E1B"></path>
            <path d="M661.6472,83.919 C661.9892,82.851 662.6052,81.943 663.4512,81.21 C663.9382,80.787 663.2282,80.083 662.7442,80.503 C661.7702,81.348 661.0762,82.427 660.6832,83.653 C660.4862,84.268 661.4512,84.531 661.6472,83.919" id="Fill-45" fill="#1D1E1B"></path>
            <path d="M639.0452,74.4552 C638.9062,76.0662 639.5932,77.3622 640.1512,78.8342 C640.8562,80.6882 641.3192,82.5972 641.6152,84.5562 C641.7112,85.1902 642.6752,84.9212 642.5792,84.2902 C642.3202,82.5782 641.9442,80.8982 641.3702,79.2632 C640.8142,77.6812 639.8962,76.1842 640.0452,74.4552 C640.1002,73.8142 639.1002,73.8182 639.0452,74.4552" id="Fill-47" fill="#1D1E1B"></path>
            <path d="M641.3943,75.2188 C643.4713,77.1498 645.3643,79.2488 647.0563,81.5258 C647.4363,82.0358 648.3043,81.5378 647.9203,81.0208 C646.1763,78.6748 644.2423,76.5018 642.1013,74.5118 C641.6303,74.0728 640.9223,74.7798 641.3943,75.2188" id="Fill-49" fill="#1D1E1B"></path>
            <path d="M621.9949,77.6612 C625.0289,76.9002 628.1879,77.1382 631.2309,76.4252 C633.7679,75.8302 636.0989,74.7412 638.2569,73.2962 C638.7879,72.9392 638.2879,72.0722 637.7519,72.4322 C635.4499,73.9742 632.9199,75.1222 630.1829,75.6272 C627.3739,76.1452 624.5109,75.9992 621.7289,76.6962 C621.1049,76.8522 621.3699,77.8172 621.9949,77.6612" id="Fill-51" fill="#1D1E1B"></path>
            <path d="M636.7834,70.5401 C635.0234,70.7271 633.2614,70.8311 631.4914,70.8511 C630.8484,70.8581 630.8464,71.8581 631.4914,71.8511 C633.2614,71.8311 635.0234,71.7271 636.7834,71.5401 C637.4164,71.4731 637.4234,70.4721 636.7834,70.5401" id="Fill-53" fill="#1D1E1B"></path>
            <path d="M643.9114,61.4386 C641.6534,61.0586 639.6904,60.0146 638.1244,58.3406 C637.6844,57.8706 636.9784,58.5786 637.4174,59.0476 C639.0884,60.8346 641.2314,61.9966 643.6454,62.4026 C644.2754,62.5086 644.5454,61.5446 643.9114,61.4386" id="Fill-55" fill="#1D1E1B"></path>
            <path d="M647.2083,58.8126 C644.4343,58.9466 641.8703,57.7006 640.3083,55.3906 C639.9493,54.8606 639.0833,55.3606 639.4443,55.8956 C641.1973,58.4866 644.0743,59.9626 647.2083,59.8126 C647.8493,59.7826 647.8523,58.7816 647.2083,58.8126" id="Fill-57" fill="#1D1E1B"></path>
            <path d="M643.3743,89.2931 C642.5883,90.7611 641.7813,92.4301 642.3953,94.1101 C642.9083,95.5131 644.2383,96.4031 645.4353,97.1771 C645.9773,97.5271 646.4783,96.6621 645.9393,96.3141 C645.0313,95.7261 643.9833,95.0771 643.4733,94.0791 C642.7363,92.6351 643.5483,91.0851 644.2373,89.7981 C644.5413,89.2311 643.6783,88.7251 643.3743,89.2931" id="Fill-59" fill="#1D1E1B"></path>
            <path d="M654.8572,91.9298 C654.1472,94.6648 654.1712,97.4158 654.9372,100.1368 C655.1112,100.7548 656.0762,100.4928 655.9012,99.8708 C655.1812,97.3108 655.1532,94.7688 655.8212,92.1958 C655.9832,91.5718 655.0192,91.3058 654.8572,91.9298" id="Fill-61" fill="#1D1E1B"></path>
            <path d="M656.7385,92.5225 C656.4795,94.8485 656.3275,97.2075 657.5315,99.3075 C657.8525,99.8655 658.7165,99.3625 658.3955,98.8025 C657.2855,96.8675 657.5015,94.6535 657.7385,92.5225 C657.8095,91.8835 656.8085,91.8885 656.7385,92.5225" id="Fill-63" fill="#1D1E1B"></path>
            <path d="M651.5032,102.0997 C650.4752,104.2347 649.9942,106.4967 650.0992,108.8657 C650.1272,109.5067 651.1282,109.5097 651.0992,108.8657 C651.0022,106.6737 651.4142,104.5817 652.3662,102.6047 C652.6442,102.0277 651.7822,101.5197 651.5032,102.0997" id="Fill-65" fill="#1D1E1B"></path>
            <path d="M652.178,104.6837 C652.074,105.3577 651.97,106.0327 651.866,106.7067 C651.77,107.3357 652.733,107.6077 652.831,106.9727 C652.935,106.2977 653.038,105.6237 653.142,104.9497 C653.239,104.3197 652.276,104.0477 652.178,104.6837" id="Fill-67" fill="#1D1E1B"></path>
            <path d="M649.8689,117.6134 C649.2439,119.0994 648.9059,120.6374 648.8239,122.2474 C648.7899,122.8894 649.7909,122.8874 649.8239,122.2474 C649.9009,120.7264 650.2439,119.2804 650.8329,117.8804 C651.0819,117.2874 650.1149,117.0284 649.8689,117.6134" id="Fill-69" fill="#1D1E1B"></path>
            <path d="M651.1091,113.8712 C658.6631,114.1422 666.2251,114.5342 673.6571,115.9992 C674.2851,116.1232 674.5541,115.1592 673.9221,115.0352 C666.4031,113.5532 658.7521,113.1452 651.1091,112.8712 C650.4651,112.8492 650.4661,113.8492 651.1091,113.8712" id="Fill-71" fill="#1D1E1B"></path>
            <path d="M657.9539,101.2852 C661.2129,100.9002 664.4769,100.6812 667.7579,100.6292 C668.4009,100.6182 668.4029,99.6182 667.7579,99.6292 C664.4769,99.6812 661.2129,99.9002 657.9539,100.2852 C657.3229,100.3592 657.3149,101.3602 657.9539,101.2852" id="Fill-73" fill="#1D1E1B"></path>
            <path d="M669.9402,100.3653 C671.0292,100.2603 672.1192,100.1543 673.2082,100.0503 C673.8432,99.9883 673.8502,98.9873 673.2082,99.0503 C672.1192,99.1543 671.0292,99.2603 669.9402,99.3653 C669.3052,99.4263 669.2992,100.4273 669.9402,100.3653" id="Fill-75" fill="#1D1E1B"></path>
            <path d="M649.5471,125.7169 C651.1291,125.7039 652.6341,125.9929 654.1031,126.5759 C654.7011,126.8149 654.9611,125.8479 654.3681,125.6129 C652.8191,124.9969 651.2131,124.7029 649.5471,124.7169 C648.9041,124.7219 648.9021,125.7219 649.5471,125.7169" id="Fill-77" fill="#1D1E1B"></path>
            <path d="M655.4866,127.3868 C657.9306,127.7368 660.3126,128.3028 662.6516,129.0918 C663.2626,129.2978 663.5256,128.3328 662.9176,128.1278 C660.5786,127.3388 658.1956,126.7728 655.7526,126.4228 C655.1226,126.3328 654.8506,127.2958 655.4866,127.3868" id="Fill-79" fill="#1D1E1B"></path>
            <path d="M639.9446,117.5147 C640.7696,119.0527 641.8456,120.4107 643.2226,121.4937 C644.7006,122.6547 646.7906,123.2357 647.8386,124.8617 C648.1856,125.4017 649.0516,124.9007 648.7016,124.3577 C647.8406,123.0217 646.5406,122.4107 645.2086,121.6317 C643.3036,120.5197 641.8486,118.9497 640.8086,117.0097 C640.5036,116.4427 639.6406,116.9477 639.9446,117.5147" id="Fill-81" fill="#1D1E1B"></path>
            <path d="M640.6145,115.9845 C641.2335,113.4585 643.2445,111.5825 645.7965,111.1095 C646.4285,110.9925 646.1605,110.0285 645.5315,110.1445 C642.6545,110.6775 640.3455,112.8805 639.6505,115.7175 C639.4975,116.3425 640.4615,116.6095 640.6145,115.9845" id="Fill-83" fill="#1D1E1B"></path>
            <path d="M641.8601,105.6534 C643.0021,106.9664 644.2091,108.2164 645.5031,109.3804 C646.7591,110.5094 648.3361,111.4544 649.3711,112.8004 C649.7581,113.3034 650.6271,112.8054 650.2351,112.2964 C649.2321,110.9914 647.8291,110.0944 646.6001,109.0194 C645.1591,107.7584 643.8231,106.3904 642.5671,104.9464 C642.1441,104.4604 641.4391,105.1704 641.8601,105.6534" id="Fill-85" fill="#1D1E1B"></path>
            <path d="M642.3103,103.7061 C640.9323,99.9131 646.5793,98.4701 648.9923,99.0711 C650.7613,99.5121 652.4633,100.6051 654.0833,101.4301 C654.6553,101.7221 655.1623,100.8591 654.5883,100.5661 C651.5083,98.9991 648.5513,97.0681 645.0223,98.3401 C642.5953,99.2141 640.3413,101.2061 641.3463,103.9721 C641.5643,104.5711 642.5313,104.3121 642.3103,103.7061" id="Fill-87" fill="#1D1E1B"></path>
            <path d="M647.3884,97.252 C648.3184,97.156 649.1294,98.133 649.8734,97.086 C650.5164,96.181 650.2194,94.586 650.2194,93.567 C650.2194,92.6 650.3134,91.499 649.3834,90.91 C648.2914,90.219 646.5984,90.144 645.3464,89.988 C644.7104,89.909 644.7164,90.909 645.3464,90.988 C646.1484,91.088 647.1314,91.165 647.8944,91.455 C649.2144,91.956 649.2194,92.641 649.2194,93.801 C649.2194,94.41 649.4184,95.351 649.1994,95.912 C648.8764,96.736 648.0354,96.186 647.3884,96.252 C646.7544,96.317 646.7474,97.318 647.3884,97.252" id="Fill-89" fill="#1D1E1B"></path>
            <path d="M646.009,107.4952 C646.448,105.9622 646.794,104.4132 647.014,102.8322 C647.116,102.0942 647.542,100.7312 647.196,100.0722 C646.807,99.3282 645.052,98.5522 644.259,98.6682 C643.624,98.7612 643.894,99.7242 644.524,99.6322 C644.755,99.5982 645.385,100.0192 645.608,100.1412 C646.372,100.5582 646.238,100.9232 646.139,101.8102 C645.934,103.6502 645.554,105.4502 645.045,107.2282 C644.867,107.8492 645.832,108.1132 646.009,107.4952" id="Fill-91" fill="#1D1E1B"></path>
            <path d="M640.5964,118.588 C641.0074,119.611 643.0724,120.202 644.0064,119.684 C644.8784,119.199 645.2644,117.965 645.5824,117.087 C646.1014,115.65 646.3224,114.147 646.3364,112.622 C646.3384,112.403 646.1794,112.198 645.9694,112.141 C644.9854,111.871 643.3214,111.322 642.3144,111.636 C641.7014,111.827 641.9634,112.793 642.5804,112.601 C643.3644,112.356 644.9154,112.889 645.7024,113.105 C645.5804,112.944 645.4584,112.783 645.3364,112.622 C645.3214,114.34 645.0134,116.04 644.2984,117.61 C644.0014,118.264 643.6704,118.855 642.8974,118.815 C642.6854,118.803 641.6524,118.551 641.5604,118.322 C641.3244,117.733 640.3564,117.99 640.5964,118.588" id="Fill-93" fill="#1D1E1B"></path>
            <path d="M648.1199,115.5763 C647.9059,116.6133 647.6919,117.6493 647.4779,118.6853 C647.3489,119.3133 648.3119,119.5823 648.4429,118.9513 L649.0839,115.8433 C649.2139,115.2143 648.2499,114.9453 648.1199,115.5763" id="Fill-95" fill="#1D1E1B"></path>
            <path d="M670.6902,119.4483 C670.4442,121.5303 669.9732,123.5563 669.2962,125.5403 C669.0882,126.1503 670.0542,126.4123 670.2612,125.8053 C670.9682,123.7323 671.4342,121.6223 671.6902,119.4483 C671.7652,118.8103 670.7642,118.8153 670.6902,119.4483" id="Fill-97" fill="#1D1E1B"></path>
            <path d="M672.428,123.5274 C673.071,123.5274 673.073,122.5274 672.428,122.5274 C671.784,122.5274 671.783,123.5274 672.428,123.5274" id="Fill-99" fill="#1D1E1B"></path>
            <path d="M674.0237,123.0606 C673.7987,124.1626 673.3587,125.1836 672.6687,126.0766 C672.2797,126.5786 672.9817,127.2906 673.3757,126.7836 C674.1727,125.7516 674.7267,124.6066 674.9877,123.3266 C675.1167,122.6986 674.1527,122.4296 674.0237,123.0606" id="Fill-101" fill="#1D1E1B"></path>
            <path d="M671.6633,111.9522 C672.9963,110.0112 673.6723,107.7942 673.6683,105.4392 C673.6673,104.7962 672.6673,104.7952 672.6683,105.4392 C672.6723,107.6332 672.0403,109.6402 670.7993,111.4472 C670.4343,111.9792 671.3003,112.4802 671.6633,111.9522" id="Fill-103" fill="#1D1E1B"></path>
            <path d="M674.886,110.5186 C675.536,109.4306 675.91,108.2536 676.037,106.9956 C676.102,106.3556 675.102,106.3596 675.037,106.9956 C674.928,108.0766 674.578,109.0826 674.022,110.0136 C673.692,110.5676 674.556,111.0706 674.886,110.5186" id="Fill-105" fill="#1D1E1B"></path>
            <path d="M675.1228,96.4132 C675.5598,93.0602 674.9008,89.8112 673.2318,86.8762 C672.9138,86.3172 672.0488,86.8202 672.3678,87.3812 C673.9598,90.1802 674.5378,93.2252 674.1228,96.4132 C674.0398,97.0502 675.0408,97.0442 675.1228,96.4132" id="Fill-107" fill="#1D1E1B"></path>
            <path d="M677.7214,93.4288 C677.9414,92.1198 677.8624,90.8388 677.4414,89.5788 C677.2394,88.9718 676.2724,89.2318 676.4774,89.8448 C676.8394,90.9278 676.9474,92.0328 676.7574,93.1618 C676.6514,93.7918 677.6154,94.0628 677.7214,93.4288" id="Fill-109" fill="#1D1E1B"></path>
            <path d="M652.0725,128.5343 C650.9445,130.2303 650.1575,132.0873 649.7225,134.0773 C649.5855,134.7043 650.5495,134.9713 650.6865,134.3433 C651.1055,132.4283 651.8505,130.6713 652.9365,129.0393 C653.2935,128.5023 652.4275,128.0003 652.0725,128.5343" id="Fill-111" fill="#1D1E1B"></path>
            <path d="M653.3176,130.5577 C652.8826,131.4427 652.5496,132.3617 652.3336,133.3237 C652.1926,133.9507 653.1566,134.2177 653.2976,133.5887 C653.4956,132.7107 653.7836,131.8697 654.1816,131.0627 C654.4646,130.4877 653.6026,129.9797 653.3176,130.5577" id="Fill-113" fill="#1D1E1B"></path>
            <path d="M643.1379,130.8868 C647.1049,135.7338 652.4949,138.8178 658.0689,141.4888 C658.6469,141.7658 659.1549,140.9038 658.5739,140.6248 C653.0769,137.9908 647.7599,134.9618 643.8449,130.1798 C643.4369,129.6818 642.7339,130.3928 643.1379,130.8868" id="Fill-115" fill="#1D1E1B"></path>
            <path d="M653.1794,139.3048 C653.5444,140.1338 653.9084,140.9638 654.2734,141.7928 C654.5314,142.3808 655.3934,141.8718 655.1364,141.2878 C654.7724,140.4588 654.4074,139.6288 654.0424,138.7998 C653.7844,138.2118 652.9224,138.7198 653.1794,139.3048" id="Fill-117" fill="#1D1E1B"></path>
            <path d="M649.865,137.3204 C650.18,138.7714 650.421,140.2314 650.581,141.7084 C650.65,142.3414 651.651,142.3474 651.581,141.7084 C651.411,140.1424 651.163,138.5924 650.829,137.0534 C650.693,136.4254 649.728,136.6914 649.865,137.3204" id="Fill-119" fill="#1D1E1B"></path>
            <path d="M647.804,125.3057 C647.423,126.1887 646.477,128.1287 645.394,128.1057 C644.285,128.0817 643.085,126.5997 642.421,125.7957 C642.012,125.2987 641.307,126.0097 641.714,126.5027 C642.494,127.4477 644.156,129.3577 645.567,129.2187 C647.013,129.0767 648.172,126.9567 648.667,125.8107 C648.92,125.2267 648.058,124.7157 647.804,125.3057" id="Fill-121" fill="#1D1E1B"></path>
            <path d="M642.5095,125.6436 C642.7455,124.3106 643.8185,123.2296 645.1915,123.1066 C645.8275,123.0486 645.8335,122.0486 645.1915,122.1066 C643.3985,122.2676 641.8635,123.5806 641.5455,125.3776 C641.4345,126.0066 642.3975,126.2776 642.5095,125.6436" id="Fill-123" fill="#1D1E1B"></path>
            <path d="M641.2263,128.2276 C642.0593,129.4536 642.9873,130.6046 644.0113,131.6746 C644.4563,132.1406 645.1633,131.4326 644.7183,130.9676 C643.7523,129.9576 642.8753,128.8786 642.0903,127.7226 C641.7303,127.1936 640.8633,127.6936 641.2263,128.2276" id="Fill-125" fill="#1D1E1B"></path>
            <path d="M634.6321,94.2677 C634.8651,94.3647 633.8831,98.4527 633.7561,98.8997 C633.3121,100.4647 632.6941,101.9787 631.9941,103.4457 C630.7781,105.9927 629.2771,108.3947 627.7801,110.7837 C627.4381,111.3297 628.3031,111.8327 628.6441,111.2887 C630.8251,107.8047 633.0141,104.2647 634.3451,100.3517 C634.7501,99.1607 636.6701,94.0387 634.8981,93.3027 C634.3041,93.0567 634.0451,94.0237 634.6321,94.2677" id="Fill-127" fill="#1D1E1B"></path>
            <path d="M636.0413,104.7325 C635.0033,106.4965 633.9663,108.2595 632.9283,110.0245 C632.6013,110.5805 633.4653,111.0845 633.7913,110.5295 C634.8293,108.7645 635.8673,107.0015 636.9043,105.2365 C637.2313,104.6805 636.3683,104.1765 636.0413,104.7325" id="Fill-129" fill="#1D1E1B"></path>
            <path d="M614.865,116.7989 C624.386,118.3789 634.462,117.3059 641.829,110.5399 C642.304,110.1049 641.595,109.3989 641.122,109.8329 C634.035,116.3409 624.278,117.3529 615.131,115.8339 C614.501,115.7299 614.23,116.6939 614.865,116.7989" id="Fill-131" fill="#1D1E1B"></path>
            <path d="M604.8972,129.2237 C605.5582,132.5247 607.3642,135.3267 610.0442,137.3477 C610.5582,137.7357 611.0572,136.8687 610.5492,136.4847 C608.0792,134.6207 606.4672,131.9827 605.8612,128.9577 C605.7352,128.3277 604.7712,128.5947 604.8972,129.2237" id="Fill-133" fill="#1D1E1B"></path>
            <path d="M611.1008,134.4229 C611.7448,134.4229 611.7458,133.4229 611.1008,133.4229 C610.4568,133.4229 610.4558,134.4229 611.1008,134.4229" id="Fill-135" fill="#1D1E1B"></path>
            <path d="M639.9622,121.6768 C636.3392,123.3118 633.2062,125.6848 630.6472,128.7248 C630.2352,129.2148 630.9392,129.9258 631.3542,129.4318 C633.8612,126.4518 636.9182,124.1428 640.4662,122.5398 C641.0522,122.2758 640.5442,121.4128 639.9622,121.6768" id="Fill-137" fill="#1D1E1B"></path>
            <path d="M595.6892,130.421 C584.2512,130.344 572.8242,130.823 561.4332,131.859 C560.7972,131.917 560.7912,132.918 561.4332,132.859 C572.8242,131.823 584.2512,131.344 595.6892,131.421 C596.3332,131.425 596.3342,130.425 595.6892,130.421" id="Fill-139" fill="#1D1E1B"></path>
            <path d="M543.2366,102.7315 L541.2136,102.7315 C540.5696,102.7315 540.5686,103.7315 541.2136,103.7315 L543.2366,103.7315 C543.8806,103.7315 543.8816,102.7315 543.2366,102.7315" id="Fill-141" fill="#1D1E1B"></path>
            <path d="M614.4622,83.2989 C612.5942,85.7369 610.7262,88.1759 608.8582,90.6139 C608.4672,91.1249 609.3362,91.6239 609.7222,91.1189 C611.5902,88.6809 613.4582,86.2419 615.3252,83.8039 C615.7162,83.2929 614.8482,82.7939 614.4622,83.2989" id="Fill-143" fill="#1D1E1B"></path>
            <path d="M612.1008,91.6847 C612.7448,91.6847 612.7458,90.6847 612.1008,90.6847 C611.4568,90.6847 611.4558,91.6847 612.1008,91.6847" id="Fill-145" fill="#1D1E1B"></path>
            <path d="M489.1086,98.5548 C427.9136,100.9628 366.6466,101.2898 305.4466,98.8718 C246.1896,96.5308 187.0706,91.6468 128.1146,85.3198 C110.3866,83.4168 92.6716,81.3908 74.9676,79.2768 C56.8726,77.1168 38.6026,74.0898 20.3276,75.3088 C19.6886,75.3518 19.6836,76.3518 20.3276,76.3088 C36.6656,75.2188 52.9326,77.6248 69.1136,79.5748 C85.0446,81.4938 100.9836,83.3458 116.9336,85.1038 C147.0946,88.4278 177.2946,91.4138 207.5376,93.8798 C266.0646,98.6528 324.7446,101.3378 383.4686,101.5438 C418.6916,101.6678 453.9136,100.9398 489.1086,99.5548 C489.7506,99.5308 489.7536,98.5298 489.1086,98.5548" id="Fill-147" fill="#1D1E1B"></path>
            <g id="Group-151" transform="translate(0.000000, 141.305000)" fill="#1D1E1B">
                <path d="M0.4822,4.1179 C67.6502,6.9109 134.8662,8.5539 202.0922,8.9199 C268.4502,9.2819 334.8142,8.4059 401.1402,6.3229 C439.1352,5.1299 477.1162,3.5389 515.0792,1.5869 C515.7192,1.5539 515.7232,0.5539 515.0792,0.5869 C447.9412,4.0399 380.7452,6.3439 313.5262,7.3719 C247.1742,8.3869 180.8052,8.1639 114.4612,6.7329 C76.4572,5.9139 38.4622,4.6969 0.4822,3.1179 C-0.1618,3.0919 -0.1598,4.0919 0.4822,4.1179" id="Fill-149"></path>
            </g>
            <path d="M20.4104,128.4786 C54.8534,129.6276 89.2964,130.7776 123.7404,131.9266 C124.3834,131.9486 124.3824,130.9486 123.7404,130.9266 C89.2964,129.7776 54.8534,128.6276 20.4104,127.4786 C19.7664,127.4576 19.7674,128.4576 20.4104,128.4786" id="Fill-152" fill="#1D1E1B"></path>
            <path d="M83.7434,114.4825 C89.0944,114.2925 94.4274,114.5145 99.7434,115.1495 C100.3814,115.2255 100.3754,114.2245 99.7434,114.1495 C94.4274,113.5145 89.0944,113.2925 83.7434,113.4825 C83.1014,113.5055 83.0984,114.5055 83.7434,114.4825" id="Fill-154" fill="#1D1E1B"></path>
            <path d="M153.7434,101.1495 C158.8724,100.9595 163.9224,101.3915 168.9444,102.4645 C169.5714,102.5985 169.8394,101.6345 169.2094,101.5015 C164.1104,100.4105 158.9564,99.9565 153.7434,100.1495 C153.1014,100.1725 153.0984,101.1725 153.7434,101.1495" id="Fill-156" fill="#1D1E1B"></path>
            <path d="M376.4104,135.1495 L387.7434,135.1495 C388.3874,135.1495 388.3884,134.1495 387.7434,134.1495 L376.4104,134.1495 C375.7664,134.1495 375.7654,135.1495 376.4104,135.1495" id="Fill-158" fill="#1D1E1B"></path>
            <path d="M672.3293,29.9141 C673.6623,29.0811 674.9963,28.2481 676.3293,27.4141 C676.8733,27.0741 676.3723,26.2091 675.8243,26.5511 C674.4913,27.3841 673.1583,28.2181 671.8243,29.0511 C671.2803,29.3921 671.7813,30.2571 672.3293,29.9141" id="Fill-160" fill="#2D2926"></path>
            <g id="Group-164" transform="translate(661.000000, 0.305000)">
                <mask id="mask-2" fill="white">
                    <use xlink:href="#path-1"></use>
                </mask>
                <g id="Clip-163"></g>
                <path d="M1.5588,9.8103 C2.2188,6.9643 2.5578,4.0993 2.5768,1.1773 C2.5808,0.5343 1.5808,0.5333 1.5768,1.1773 C1.5588,4.0073 1.2338,6.7873 0.5948,9.5443 C0.4498,10.1703 1.4138,10.4383 1.5588,9.8103" id="Fill-162" fill="#2D2926" mask="url(#mask-2)"></path>
            </g>
            <path d="M641.0588,19.8497 C640.5588,18.5167 640.0588,17.1827 639.5588,15.8497 C639.3348,15.2527 638.3678,15.5117 638.5948,16.1157 C639.0948,17.4497 639.5948,18.7827 640.0948,20.1157 C640.3188,20.7127 641.2858,20.4537 641.0588,19.8497" id="Fill-165" fill="#2D2926"></path>
            <path d="M615.5872,40.9825 C615.4812,39.5915 614.5522,38.4145 613.2022,38.0305 C612.5822,37.8545 612.3172,38.8185 612.9362,38.9955 C613.8372,39.2515 614.5152,40.0405 614.5872,40.9825 C614.6362,41.6205 615.6362,41.6255 615.5872,40.9825" id="Fill-167" fill="#2D2926"></path>
            <path d="M573.4368,83.3423 C573.8748,82.8713 573.1698,82.1633 572.7298,82.6353 C570.7658,84.7413 568.2848,86.0433 565.4418,86.4853 C564.8078,86.5833 565.0768,87.5473 565.7078,87.4493 C568.7068,86.9833 571.3688,85.5603 573.4368,83.3423 Z" id="Fill-169" fill="#2D2926"></path>
            <path d="M682.2117,139.4757 C682.2847,141.6287 681.8957,143.7017 681.0097,145.6667 C680.7487,146.2487 681.6097,146.7577 681.8737,146.1717 C682.8327,144.0417 683.2917,141.8117 683.2117,139.4757 C683.1897,138.8337 682.1897,138.8307 682.2117,139.4757" id="Fill-171" fill="#2D2926"></path>
            <path d="M687.6946,140.9835 C687.6876,142.3165 687.6806,143.6495 687.6736,144.9835 C687.6696,145.6275 688.6696,145.6285 688.6736,144.9835 C688.6806,143.6495 688.6876,142.3165 688.6946,140.9835 C688.6976,140.3395 687.6976,140.3385 687.6946,140.9835" id="Fill-173" fill="#2D2926"></path>
        </g>
    </g>
</svg>
